<svg data-v-423bf9ae="" xmlns="http://www.w3.org/2000/svg" viewBox="0 0 59.933349598074955 60" class="icon"><!----><!----><!----><defs data-v-423bf9ae=""><linearGradient data-v-423bf9ae="" gradientTransform="rotate(25)" id="4f4bc323-8b57-44a2-b327-856f2d94651c" x1="0%" y1="0%" x2="100%" y2="0%"><stop data-v-423bf9ae="" offset="0%" style="stop-color: #fd4c01; stop-opacity: 1;"></stop><stop data-v-423bf9ae="" offset="100%" style="stop-color: #ffaf8b; stop-opacity: 1;"></stop></linearGradient></defs><g data-v-423bf9ae="" id="01cbd00e-44f1-4c5b-bab3-f90201e4163b" transform="matrix(0.666666779694753,0,0,0.666666779694753,-3.3333316675831313,-3.333333898473768)" stroke="none" fill="url(#4f4bc323-8b57-44a2-b327-856f2d94651c)"><path d="M93 49.1c-2.4-.5-4.5-1.5-5.1-4.4-.5-2.9 1.8-4 4.1-5.3.7-.4 1.2-.8 1.4-1.2l-.6-2.1c-.5-.3-1.1-.5-2.1-.4-2.5.3-4.8 0-6.2-2.6-1.4-2.6.5-4.3 2.2-6.3.5-.6.8-1.1.9-1.4-.4-.6-.9-1.3-1.3-1.9-.5-.1-1.2 0-2 .3-2.3 1-4.6 1.5-6.7-.6-2.1-2-.9-4.3.2-6.7.3-.6.4-1.2.4-1.5-.6-.5-1.3-1-2-1.5-.5.1-1 .4-1.6.9-1.8 1.7-3.9 2.8-6.5 1.5s-2.2-3.8-1.9-6.4c.1-.7 0-1.2 0-1.5l-2.4-.9c-.4.2-.8.7-1.2 1.3-1.2 2.1-2.8 3.9-5.7 3.5S53.7 9 53.1 6.5c-.1-.6-.3-1.1-.5-1.4C51.8 5 50.9 5 50 5c-.3.4-.6.9-.7 1.6-.5 2.4-1.5 4.5-4.4 5.1-2.9.5-4-1.8-5.3-4.1-.3-.5-.6-.9-.9-1.2-.9.2-1.7.5-2.5.7-.2.4-.3 1-.2 1.7.3 2.5 0 4.8-2.6 6.2-2.6 1.4-4.3-.5-6.3-2.2-.5-.4-.9-.7-1.2-.8-.7.5-1.5 1-2.2 1.5 0 .5.1 1 .4 1.7 1 2.3 1.5 4.6-.6 6.7-2 2.1-4.3.9-6.7-.2-.6-.3-1.1-.4-1.4-.4-.6.7-1.1 1.3-1.6 2 .1.5.4 1 .9 1.5 1.7 1.8 2.8 3.9 1.5 6.5s-3.8 2.2-6.4 1.9c-.7-.1-1.2 0-1.6 0-.3.8-.6 1.5-.9 2.3.3.6.7 1.1 1.4 1.5 2.1 1.2 3.9 2.8 3.5 5.7s-2.9 3.2-5.5 3.8c-.7.2-1.2.4-1.6.6-.1.8-.1 1.6-.1 2.4.4.4.9.7 1.8.9 2.4.5 4.5 1.5 5.1 4.4.5 2.9-1.8 4-4.1 5.3-.7.4-1.1.8-1.4 1.1l.6 2.1c.5.3 1.1.5 2.1.3 2.5-.3 4.8 0 6.2 2.6 1.4 2.6-.5 4.3-2.2 6.3-.6.7-.9 1.2-1 1.6.4.6.7 1.1 1.1 1.7.5.1 1.3.1 2.2-.3 2.3-1 4.6-1.5 6.7.6 2.1 2 .9 4.3-.2 6.7-.4.9-.5 1.5-.5 2 .5.4 1 .8 1.5 1.1.6 0 1.3-.2 2.1-1 1.8-1.7 3.9-2.8 6.5-1.5 2.6 1.3 2.2 3.8 1.9 6.4-.1 1.1 0 1.7.2 2.1.5.2 1 .4 1.6.6.6-.1 1.3-.6 1.9-1.6 1.2-2.1 2.8-3.9 5.7-3.5 2.9.4 3.2 2.9 3.8 5.5.2 1.1.6 1.7.9 2 .5 0 1 0 1.6.1.5-.3 1.1-.9 1.3-2.1.5-2.4 1.5-4.5 4.4-5.1 2.9-.5 4 1.8 5.3 4.1.6 1 1.1 1.4 1.5 1.6.5-.1 1-.3 1.4-.4.4-.4.8-1.2.7-2.5-.3-2.5 0-4.8 2.6-6.2 2.6-1.4 4.3.5 6.3 2.2.8.8 1.5 1 1.9 1.1.4-.3.8-.6 1.3-.9.2-.5.4-1.4-.2-2.5-1-2.3-1.5-4.6.6-6.7 2-2.1 4.3-.9 6.7.2 1 .4 1.7.5 2.1.4.3-.4.7-.9 1-1.3 0-.6-.1-1.4-1-2.3-1.7-1.8-2.8-3.9-1.5-6.5 1.3-2.6 3.8-2.2 6.4-1.9 1 .1 1.7 0 2.1-.2.2-.6.4-1.1.6-1.7-.2-.6-.6-1.2-1.6-1.8-2.1-1.2-3.9-2.8-3.5-5.7.4-2.9 2.9-3.2 5.5-3.8.9-.2 1.5-.5 1.8-.7 0-.7 0-1.3.1-2-.2-.5-.8-1-1.9-1.2zM27.1 68.5c-1.8.3-4.1.1-5.6-2.7-2.7-4.5-4.6-12.7-4.1-15.4.5-2.7 1.9-3.7 4.3-4.1s4.1 1.9 4.6 5.5c.5 3.4 1.7 7.7 3.3 10.5 1.5 2.8-.7 5.9-2.5 6.2zm-1.9-34.8c-.8-1.6-1.4-3.8.8-6.2 3.4-3.9 10.7-8.3 13.4-8.6 2.7-.3 4.2.6 5.2 2.8 1.1 2.1-.6 4.5-3.8 6-3.1 1.5-6.8 4-9 6.4-2.1 2.3-5.7 1.2-6.6-.4zm35.5 43.8c-.3 1.8-1.1 3.9-4.3 4.5-5.1 1.2-13.5.4-15.9-.9-2.4-1.3-3-3-2.6-5.3.4-2.4 3.1-3.3 6.6-2.6 3.4.6 7.8.8 11 .1 3.3-.6 5.5 2.4 5.2 4.2zM50 68c-9.9 0-18-8.1-18-18s8.1-18 18-18 18 8.1 18 18-8.1 18-18 18zm18.3-33.8c-2.4-2.5-5.9-5.2-8.8-6.6-2.9-1.4-3-5.2-1.7-6.5 1.3-1.3 3.2-2.5 6.1-1.1 4.8 2.1 11.2 7.6 12.3 10.1 1.2 2.5.7 4.1-1 5.8-1.6 1.7-4.4.9-6.9-1.7zm14.4 19.6c-.5 5.2-3.8 13-5.8 14.9-2 1.9-3.7 1.9-5.9.8-2.1-1.1-2.2-4-.5-7.1 1.6-3 3.1-7.2 3.5-10.4.4-3.2 4-4.4 5.6-3.6 1.8.7 3.5 2.2 3.1 5.4z"></path></g><!----></svg>